<?xml version="1.0" encoding="utf-8"?>
<!-- Generator: Adobe Illustrator 19.0.0, SVG Export Plug-In . SVG Version: 6.00 Build 0)  -->
<svg version="1.1" id="Layer_1" xmlns="http://www.w3.org/2000/svg" xmlns:xlink="http://www.w3.org/1999/xlink" x="0px" y="0px"
	viewBox="271 -209 450 450" fill="#888" style="enable-background:new 271 -209 450 450;" xml:space="preserve">
	<g>
		<path d="M496-209c-124.3,0-225,100.7-225,225s100.7,225,225,225S721,140.3,721,16S620.3-209,496-209z M496,198.8
			C395,198.8,313.2,117,313.2,16S395-166.8,496-166.8S678.8-85,678.8,16S597,198.8,496,198.8z"/>
		<path d="M566.3-96.5L496-26.2l-70.3-70.3l-42.2,42.2L453.8,16l-70.3,70.3l42.2,42.2L496,58.2l70.3,70.3l42.2-42.2L538.2,16
			l70.3-70.3L566.3-96.5z"/>
	</g>
</svg>