<?xml version="1.0" encoding="utf-8"?>
<!-- Generator: Adobe Illustrator 19.0.0, SVG Export Plug-In . SVG Version: 6.00 Build 0)  -->
<svg version="1.1" id="Layer_1" xmlns="http://www.w3.org/2000/svg" xmlns:xlink="http://www.w3.org/1999/xlink" x="0px" y="0px"
	 viewBox="0 0 900 360" style="enable-background:new 0 0 900 360;" xml:space="preserve">
<style type="text/css">
	.st0{fill:#E6B91E;}
</style>
<path id="XMLID_3_" class="st0" d="M863,360H37c-20.4,0-37-16.6-37-37V37C0,16.6,16.6,0,37,0h826c20.4,0,37,16.6,37,37v286
	C900,343.4,883.4,360,863,360z"/>
<g id="XMLID_7_">
	<path id="XMLID_8_" d="M102.1,292.7V63.4h99.6v46.3h-40.5v42h34.7v44.4h-34.7v96.6H102.1z"/>
	<path id="XMLID_10_" d="M214.6,292.7V63.4h59.1v229.3H214.6z"/>
	<path id="XMLID_12_" d="M293.3,292.7V63.4h78.6l15.5,134h0.6l13.8-134h79.7v229.3h-50V122.5h-0.6l-24.8,170.2h-37.3L344,122.5h-0.6
		v170.2H293.3z"/>
	<path id="XMLID_14_" d="M502.1,292.7V63.4h74.5c21.7,0.2,36.7,2.9,44.7,8c13.8,7.4,21,24.4,21.5,50.8v126.4
		c-0.2,29.2-17.7,43.9-52.4,44.1H502.1z M561.2,102v152.1h8.6c4.9,0,8.7-2.3,11.3-6.9c1.7-2.9,2.5-7,2.5-12.1V121
		c0-5.1-0.8-9.1-2.5-12.1c-2.6-4.6-6.4-6.9-11.3-6.9H561.2z"/>
	<path id="XMLID_17_" d="M719.9,277.4l-2.7,15.4h-54V63.4h57.3v57.4h0.6c11.2-14.1,23.4-21.2,36.5-21.2c14.1,0,24.7,6.2,31.8,18.5
		c5.5,9.6,8.3,22.4,8.3,38.4v90.8c0,13.3-2.5,24.2-7.4,32.8c-6.7,11.6-17.4,17.4-32.2,17.4c-8.8,0-16.5-2.2-23.2-6.6
		C731.2,288.4,726.1,283.8,719.9,277.4z M720.6,153v91.3c0,5.9,0.7,10,2,12.5c1.7,2.7,4.4,4.1,8.2,4.1c3.1,0,5.6-1,7.4-3.1
		c1.7-1.9,2.5-4,2.5-6.4V152c0-2.6-0.6-5-1.9-7.2c-1.7-3.1-4.2-4.7-7.7-4.7c-3.9,0-6.7,1.7-8.6,5C721.2,147.2,720.6,149.8,720.6,153
		z"/>
</g>
</svg>
